<svg id="logosandtypes_com" xmlns="http://www.w3.org/2000/svg" viewBox="0 0 150 150.2"><style>.st1{fill:#14234c}</style><g id="Layer_3_2_"><g id="Layer_3_1_"><path id="Layer_3" d="M0 .2h150v150H0V.2z" fill="none"/></g></g><g id="humber_college"><path class="st1" d="M149.8 34.2c0 4.8-4 8.7-8.8 8.7-4.8 0-8.7-4-8.7-8.8 0-4.8 3.9-8.7 8.8-8.7 4.8.1 8.7 4 8.7 8.8M40.8 90.6V43.7h13.7v34.6c9.7-7.9 19.9-15.1 30.7-21.4V27.3h13.7v22.2c8.4-4.2 17-7.8 25.8-10.9-19.8-28-58.6-34.6-86.6-14.7S3.5 82.4 23.4 110.4c5.3-7 11.1-13.7 17.4-19.8"/><path d="M125.9 40.3c-9.5 4-18.5 8.9-27 14.8v64.7H85.2V65.6c-18.8 15.9-35.5 36.6-45.9 60 28.7 18.8 67.2 10.8 86-17.9 13.4-20.5 13.6-46.8.6-67.4" fill="#d4a82a"/></g></svg>